   <svg
            width="18"
            height="18"
            viewBox="0 0 24 24"
            fill="none"
            color="#f0a500"
            xmlns="http://www.w3.org/2000/svg"
          >
            <path
              d="M3 3L21 21"
              stroke="currentColor"
              strokeWidth="2"
              strokeLinecap="round"
            />
            <path
              d="M10.58 10.58C10.21 10.95 10 11.46 10 12C10 13.66 11.34 15 13 15C13.54 15 14.05 14.79 14.42 14.42"
              stroke="currentColor"
              strokeWidth="2"
              strokeLinecap="round"
            />
            <path
              d="M9.88 5.09C11.15 4.73 12.56 4.63 14 4.8C18 5.27 21.27 8.24 22 12C21.79 13.1 21.38 14.14 20.82 15.08"
              stroke="currentColor"
              strokeWidth="2"
              strokeLinecap="round"
            />
            <path
              d="M6.1 6.1C3.99 7.55 2.53 9.59 2 12C2.73 15.76 6 18.73 10 19.2C11.44 19.37 12.85 19.27 14.12 18.91"
              stroke="currentColor"
              strokeWidth="2"
              strokeLinecap="round"
            />
          </svg>